<svg width="337" height="44" viewBox="0 0 337 44" fill="none" xmlns="http://www.w3.org/2000/svg">
<path d="M43.8763 21.5121H40.7258C40.7284 21.6485 40.7476 21.799 40.7476 21.9409C40.7476 32.3118 32.3164 40.7385 21.95 40.7385C17.2811 40.7385 13.0067 39.0185 9.71674 36.1817H21.95C29.8064 36.1817 36.1887 29.7968 36.1887 21.9409C36.1887 21.7995 36.1741 21.6485 36.1665 21.5121H32.9912C32.9988 21.6581 33.0352 21.799 33.0352 21.9409C33.0352 28.0526 28.0642 33.0332 21.9506 33.0332H13.037H6.8097H3.04242C3.69556 34.1445 4.43861 35.2022 5.27965 36.1817C9.31011 40.8991 15.2853 43.892 21.95 43.892C34.0561 43.892 43.9031 34.0475 43.9031 21.9409C43.9031 21.799 43.8839 21.648 43.8763 21.5121Z" fill="#333334"/>
<path d="M34.4844 15.2005H30.6807H21.95C18.2312 15.2005 15.207 18.2267 15.207 21.941C15.207 22.092 15.2409 22.2284 15.2459 22.3845H18.4065C18.3893 22.2284 18.36 22.092 18.36 21.941C18.36 19.9724 19.9729 18.3586 21.9495 18.3586H27.6419H32.3866H35.7129H40.3944H43.5793C43.404 17.2816 43.1605 16.2289 42.8292 15.2005H39.4761H34.4844Z" fill="#333334"/>
<path d="M9.41517 28.6961H13.2163H21.95C25.6708 28.6961 28.6971 25.6643 28.6971 21.941C28.6971 21.7995 28.6653 21.6581 28.6532 21.5121H25.5026C25.5148 21.6485 25.5441 21.799 25.5441 21.941C25.5441 23.9196 23.9312 25.5375 21.95 25.5375H16.2648H11.5201H8.18871H3.50966C3.30963 24.5045 3.20305 23.4564 3.1788 22.3845C3.17577 22.2284 3.15657 22.092 3.15657 21.941C3.15657 11.5893 11.5903 3.14799 21.9495 3.14799C26.621 3.14799 30.8924 4.87857 34.1849 7.70984H21.9495C14.0978 7.70984 7.71287 14.0942 7.71287 21.941C7.71287 22.092 7.73005 22.2284 7.7351 22.3845H10.9129C10.9078 22.2284 10.8664 22.092 10.8664 21.941C10.8664 15.8293 15.8374 10.8583 21.949 10.8583H30.8677H37.0934H40.8632C40.2055 9.74755 39.46 8.6898 38.624 7.71035C34.5935 3.00251 28.6228 0 21.9485 0C9.84706 0 0 9.83949 0 21.9415C0 22.0925 0.0191971 22.2289 0.0242485 22.385C0.0439487 23.4569 0.148511 24.505 0.319246 25.538C0.497558 26.6205 0.74305 27.6772 1.07442 28.6966H4.42547L9.41517 28.6961Z" fill="#333334"/>
<path d="M61.77 22.607C59.551 22.472 58.529 21.835 58.529 20.707C58.529 19.597 59.662 18.979 61.693 18.979C63.357 18.979 64.776 19.365 66.006 20.523L68.395 17.706C66.388 15.94 64.342 15.41 61.636 15.41C58.457 15.41 54.308 16.838 54.308 20.832C54.308 24.787 58.225 26.004 61.5 26.244C63.961 26.37 64.945 27.055 64.945 28.242C64.945 29.515 63.425 30.19 61.804 30.152C59.874 30.113 57.467 29.457 55.808 27.701L53.704 30.789C56.241 33.433 58.991 33.895 61.735 33.895C66.705 33.895 69.204 31.232 69.204 28.183C69.205 23.552 65.045 22.809 61.77 22.607Z" fill="#333334"/>
<path d="M85.128 18.253C84.134 16.545 81.915 15.444 79.585 15.444C74.515 15.425 70.535 18.561 70.535 24.543C70.535 30.66 74.341 33.825 79.474 33.776C81.422 33.747 84.133 32.744 85.127 30.717L85.335 33.264H89.377V15.878H85.258L85.128 18.253ZM79.981 29.832C77.126 29.832 74.834 27.844 74.834 24.544C74.834 21.234 77.126 19.295 79.981 19.295C86.745 19.294 86.745 29.832 79.981 29.832Z" fill="#333334"/>
<path d="M101.208 15.59C99.019 15.59 97.258 16.478 95.497 18.194L95.212 15.84H91.372V33.264H95.646V24.369C95.646 21.724 97.446 19.515 100.08 19.515C102.829 19.515 104.276 21.512 104.276 24.156V33.263H108.575V24.108C108.576 18.658 105.291 15.59 101.208 15.59Z" fill="#333334"/>
<path d="M125.125 18.234C124.106 16.439 121.251 15.445 119.413 15.445C114.343 15.445 110.57 18.562 110.57 24.544C110.57 30.256 114.415 33.652 119.524 33.652C121.631 33.652 123.788 32.938 125.125 30.854L125.409 33.265H129.432V8.60501H125.124V18.234H125.125ZM119.808 29.648C117.063 29.648 114.868 27.592 114.868 24.544C114.868 21.408 117.063 19.469 119.808 19.469C122.514 19.469 124.844 21.515 124.844 24.544C124.844 27.669 122.514 29.648 119.808 29.648Z" fill="#333334"/>
<path d="M138.886 22.576C136.671 22.441 135.644 21.804 135.644 20.676C135.644 19.566 136.773 18.948 138.809 18.948C140.473 18.948 141.882 19.334 143.122 20.492L145.51 17.675C143.508 15.909 141.458 15.379 138.752 15.379C135.577 15.379 131.424 16.807 131.424 20.801C131.424 24.756 135.326 25.973 138.598 26.213C141.073 26.339 142.061 27.024 142.061 28.211C142.061 29.484 140.541 30.159 138.926 30.121C136.99 30.082 134.588 29.426 132.924 27.67L130.82 30.758C133.353 33.402 136.107 33.864 138.852 33.864C143.822 33.864 146.33 31.201 146.33 28.152C146.33 23.521 142.152 22.778 138.886 22.576Z" fill="#333334"/>
<path d="M157.167 15.571C152.271 15.571 148.324 19.334 148.324 24.544C148.324 30.082 152.27 33.479 157.167 33.479C159.95 33.479 162.98 32.379 164.668 30.16L163.448 29.167C162.135 30.894 159.458 31.801 157.167 31.801C153.567 31.801 150.433 29.447 150.085 25.356H165.763C166.428 18.562 162.073 15.571 157.167 15.571ZM150.084 23.849C150.47 19.565 153.566 17.153 157.166 17.153C161.362 17.153 164.175 19.547 164.209 23.849H150.084Z" fill="#333334"/>
<path d="M175.707 15.533C173.285 15.571 170.858 16.546 169.508 18.948V15.842H167.824V33.266H169.542V23.541C169.542 19.961 172.046 17.24 175.649 17.23C179.412 17.172 181.848 19.294 181.848 23.251V33.266H183.57V23.213C183.57 18.388 180.362 15.533 175.707 15.533Z" fill="#333334"/>
<path d="M193 31.916C190.284 31.916 189.797 30.256 189.797 27.883V17.289H195.712V15.842H189.797V10.583L188.104 10.757V15.842H184.4V17.289H188.104V27.883C188.104 31.318 189.305 33.479 193 33.479C194.091 33.479 195.19 33.141 196.271 32.621L195.673 31.202C194.799 31.625 193.849 31.916 193 31.916Z" fill="#333334"/>
<path d="M199.29 18.948L199.213 15.842H197.592V33.266H199.324V23.117C199.324 19.933 201.827 17.328 205.069 17.29C206.091 17.29 207.115 17.54 208.026 18.081L208.798 16.672C207.645 15.997 206.366 15.65 205.069 15.65C202.845 15.648 200.379 16.593 199.29 18.948Z" fill="#333334"/>
<path d="M218.698 15.571C213.816 15.571 209.856 19.334 209.856 24.544C209.856 30.082 213.816 33.479 218.698 33.479C221.497 33.479 224.526 32.379 226.21 30.16L224.98 29.167C223.672 30.894 221.005 31.801 218.699 31.801C215.12 31.801 211.984 29.447 211.617 25.356H227.31C227.975 18.562 223.614 15.571 218.698 15.571ZM211.616 23.849C212.012 19.565 215.119 17.153 218.698 17.153C222.9 17.153 225.722 19.547 225.757 23.849H211.616Z" fill="#333334"/>
<path d="M238.604 15.59C235.217 15.59 232.434 17.326 231.064 19.96V15.841H229.371V40.501H231.02V29.232C232.511 32.127 235.256 33.574 238.208 33.574C243.114 33.574 247.065 30.389 247.065 24.543C247.066 18.948 243.323 15.763 238.604 15.59ZM238.208 31.916C234.232 31.916 231.165 28.848 231.165 24.583C231.165 20.328 234.16 17.24 238.208 17.24C242.164 17.24 245.328 19.642 245.328 24.544C245.328 29.446 242.165 31.916 238.208 31.916Z" fill="#333334"/>
<path d="M250.758 18.948L250.686 15.842H249.06V33.266H250.792V23.117C250.792 19.933 253.286 17.328 256.532 17.29C257.554 17.29 258.577 17.54 259.489 18.081L260.27 16.672C259.108 15.997 257.839 15.65 256.532 15.65C254.318 15.648 251.843 16.593 250.758 18.948Z" fill="#333334"/>
<path d="M271.108 15.571C266.212 15.571 262.265 19.334 262.265 24.544C262.265 30.082 266.211 33.479 271.108 33.479C273.891 33.479 276.926 32.379 278.61 30.16L277.38 29.167C276.077 30.894 273.405 31.801 271.109 31.801C267.52 31.801 264.375 29.447 264.032 25.356H279.711C280.371 18.562 276.014 15.571 271.108 15.571ZM264.031 23.849C264.413 19.565 267.519 17.153 271.108 17.153C275.305 17.153 278.123 19.547 278.156 23.849H264.031Z" fill="#333334"/>
<path d="M289.663 15.533C287.236 15.571 284.796 16.546 283.454 18.948V15.842H281.77V33.266H283.493V23.541C283.493 19.961 285.991 17.24 289.6 17.23C293.358 17.172 295.789 19.294 295.789 23.251V33.266H297.516V23.213C297.516 18.388 294.318 15.533 289.663 15.533Z" fill="#333334"/>
<path d="M315.479 19.642C314.036 16.941 311.17 15.648 308.358 15.648C303.501 15.648 299.51 19.228 299.51 24.544C299.51 29.851 303.5 33.527 308.358 33.527C311.171 33.527 313.791 32.272 315.479 29.561V33.265H317.201C317.201 27.419 317.201 21.649 317.201 15.841H315.479V19.642ZM308.358 31.837C304.407 31.837 301.228 28.924 301.228 24.543C301.228 20.153 304.407 17.288 308.358 17.288C318.049 17.289 318.049 31.837 308.358 31.837Z" fill="#333334"/>
<path d="M335.153 8.595V19.642C333.744 16.825 330.931 15.571 327.922 15.571C323.059 15.571 319.195 18.794 319.195 24.544C319.195 30.343 323.025 33.527 327.892 33.527C330.859 33.527 333.705 32.06 335.153 29.425V33.265H336.851V8.595H335.153ZM327.999 31.837C324.082 31.837 320.879 29.387 320.879 24.543C320.879 19.642 324.082 17.23 327.999 17.23C332.022 17.23 335.114 20.154 335.114 24.496C335.114 28.847 332.084 31.837 327.999 31.837Z" fill="#333334"/>
</svg>
