<svg width="64" height="64" viewBox="0 0 64 64" fill="none" xmlns="http://www.w3.org/2000/svg">
<path d="M63.961 31.3673H59.3683C59.372 31.5662 59.4 31.7857 59.4 31.9926C59.4 47.1147 47.1094 59.4017 31.9978 59.4017C25.1916 59.4017 18.9605 56.8938 14.1646 52.7574H31.9978C43.4504 52.7574 52.7543 43.4474 52.7543 31.9926C52.7543 31.7864 52.733 31.5662 52.7219 31.3673H48.0932C48.1042 31.5802 48.1572 31.7857 48.1572 31.9926C48.1572 40.9041 40.9107 48.1665 31.9985 48.1665H19.0047H9.92688H4.4351C5.38722 49.7869 6.4704 51.3292 7.69644 52.7574C13.5719 59.636 22.2823 64 31.9978 64C49.6454 64 64 49.6454 64 31.9926C64 31.7857 63.972 31.5654 63.961 31.3673Z" fill="#333334"/>
<path d="M50.2698 22.1642H44.725H31.9978C26.5767 22.1642 22.1681 26.5768 22.1681 31.9927C22.1681 32.2129 22.2174 32.4118 22.2248 32.6394H26.8322C26.8072 32.4118 26.7645 32.2129 26.7645 31.9927C26.7645 29.1223 29.1157 26.7691 31.997 26.7691H40.2951H47.2117H52.0606H58.8852H63.528C63.2725 25.1988 62.9175 23.6638 62.4345 22.1642H57.5465H50.2698Z" fill="#333334"/>
<path d="M13.725 41.8425H19.2661H31.9978C37.4218 41.8425 41.8333 37.4217 41.8333 31.9926C41.8333 31.7864 41.787 31.5802 41.7693 31.3673H37.1766C37.1943 31.5662 37.237 31.7857 37.237 31.9926C37.237 34.8777 34.8858 37.2369 31.9978 37.2369H23.7101H16.7934H11.9371H5.11623C4.82463 35.7306 4.66926 34.2023 4.63391 32.6393C4.62949 32.4117 4.60151 32.2129 4.60151 31.9926C4.60151 16.8986 16.8958 4.59017 31.9971 4.59017C38.8069 4.59017 45.0336 7.11357 49.8332 11.2419H31.9971C20.5511 11.2419 11.2435 20.5511 11.2435 31.9926C11.2435 32.2129 11.2685 32.4117 11.2759 32.6393H15.9083C15.901 32.4117 15.8406 32.2129 15.8406 31.9926C15.8406 23.0812 23.0871 15.8328 31.9963 15.8328H44.9975H54.0731H59.5686C58.6098 14.2131 57.523 12.6708 56.3043 11.2427C50.4289 4.37804 41.7251 0 31.9956 0C14.3546 0 0 14.3472 0 31.9934C0 32.2136 0.0279847 32.4125 0.0353483 32.6401C0.0640664 34.203 0.216493 35.7314 0.465382 37.2376C0.725317 38.816 1.08318 40.3569 1.56624 41.8432H6.45125L13.725 41.8425Z" fill="#333334"/>
</svg>
